<svg width="19" height="19" xmlns="http://www.w3.org/2000/svg">

 <g>
  <title>background</title>
  <rect fill="none" id="canvas_background" height="21" width="21" y="-1" x="-1"/>
 </g>
 <g>
  <title>Layer 1</title>
  <g stroke="null" id="svg_4">
   <path stroke="null" fill="#e2cf1c" id="svg_2" d="m1.754035,5.386062c0.436516,0.248251 6.500115,3.813643 6.72631,3.942048c0.226194,0.128405 0.456357,0.188328 0.813507,0.188328c0.357149,0 0.587312,-0.059923 0.813507,-0.188328c0.226194,-0.128405 6.289794,-3.693798 6.72631,-3.942048c0.162701,-0.089884 0.436516,-0.252531 0.496041,-0.436579c0.103176,-0.325294 -0.007937,-0.449419 -0.448421,-0.449419l-7.587436,0l-7.587436,0c-0.440484,0 -0.551597,0.128405 -0.448421,0.449419c0.059525,0.188328 0.333339,0.346695 0.496041,0.436579z"/>
   <path stroke="null" fill="#e2cf1c" id="svg_3" d="m17.178912,5.621472c-0.325403,0.179768 -3.246089,2.422583 -5.178663,3.770841l3.261963,3.959169c0.079366,0.085604 0.115081,0.188328 0.07143,0.23969c-0.04762,0.047082 -0.150796,0.021401 -0.234131,-0.059923l-3.912768,-3.561112c-0.59128,0.410898 -1.007954,0.69339 -1.079384,0.736191c-0.305561,0.166927 -0.51985,0.188328 -0.813507,0.188328c-0.293656,0 -0.507946,-0.021401 -0.813507,-0.188328c-0.075398,-0.042802 -0.488104,-0.325294 -1.079384,-0.736191l-3.912768,3.561112c-0.079366,0.085604 -0.186511,0.111285 -0.234131,0.059923c-0.04762,-0.047082 -0.011905,-0.154087 0.067462,-0.23969l3.257994,-3.959169c-1.932574,-1.348258 -4.885007,-3.591073 -5.21041,-3.770841c-0.349213,-0.192608 -0.369054,0.034241 -0.369054,0.209729c0,0.175487 0,8.774375 0,8.774375c0,0.398057 0.54366,0.894558 0.932556,0.894558l7.361242,0l7.361242,0c0.388896,0 0.85319,-0.500781 0.85319,-0.894558c0,0 0,-8.603168 0,-8.774375c0,-0.179768 0.02381,-0.402337 -0.329371,-0.209729z"/>
  </g>
 </g>
</svg>