<svg width="19" height="19" xmlns="http://www.w3.org/2000/svg">

 <g>
  <title>background</title>
  <rect fill="none" id="canvas_background" height="21" width="21" y="-1" x="-1"/>
 </g>
 <g>
  <title>Layer 1</title>
  <rect id="svg_1" y="0" x="0" width="32" height="32" fill="none"/>
  <path fill="#e2cf1c" stroke="null" id="svg_2" d="m9.408873,0c-5.195787,0.001176 -9.407697,4.213087 -9.408873,9.408874c0.001176,5.197552 4.213086,9.409462 9.408873,9.41005c5.197551,-0.001176 9.409461,-4.212498 9.410049,-9.41005c-0.000588,-5.195787 -4.212498,-9.407698 -9.410049,-9.408874zm-8.20211,9.998141l2.9334,0c0.041754,1.093262 0.191718,2.074198 0.423426,2.939869l-2.579957,0c-0.429895,-0.902132 -0.700417,-1.89189 -0.776869,-2.939869zm8.790789,-5.292234l0,-3.405049c0.553394,0.414604 1.758981,1.470817 2.607009,3.405637l-2.607009,0l0,-0.000588zm3.039844,1.175595c0.251703,0.845087 0.419897,1.826024 0.467533,2.940457l-3.507377,0l0,-2.940457l3.039844,0zm-4.48302,-4.373047c0.102328,-0.084685 0.189365,-0.151728 0.266993,-0.209361l0,3.406813l-2.609949,0c0.310512,-0.707474 0.66866,-1.298506 1.025043,-1.783681c0.482235,-0.655134 0.963294,-1.117962 1.317913,-1.413772zm0.266993,4.373047l0,2.940457l-3.505024,0c0.047635,-1.119726 0.219946,-2.09537 0.473414,-2.940457l3.031611,0zm-4.681207,2.940457l-2.9334,0c0.075864,-1.047391 0.345798,-2.038325 0.775692,-2.940457l2.581133,0c-0.231708,0.866259 -0.381671,1.847783 -0.423426,2.940457zm1.173242,1.176183l3.507965,0l0,2.939869l-3.040432,0c-0.251703,-0.844499 -0.419897,-1.825436 -0.467533,-2.939869zm3.507965,4.11664l0,3.404461c-0.552806,-0.414016 -1.758981,-1.46964 -2.607009,-3.404461l2.607009,0zm1.442588,3.196277c-0.10174,0.084685 -0.189365,0.151139 -0.266405,0.209361l0,-3.405049l2.609361,0c-0.309924,0.706886 -0.66866,1.29733 -1.025043,1.782505c-0.481647,0.653958 -0.963294,1.117962 -1.317913,1.413184zm-0.266405,-4.373047l0,-2.939869l3.504436,0c-0.047635,1.119138 -0.219946,2.094781 -0.472825,2.939869l-3.031611,0zm4.681207,-2.939869l2.932223,0c-0.075864,1.047391 -0.346386,2.037737 -0.776281,2.939869l-2.579369,0c0.23112,-0.86567 0.381083,-1.846607 0.423426,-2.939869zm0,-1.176183c-0.042343,-1.093262 -0.191718,-2.074198 -0.424014,-2.940457l2.580545,0c0.429895,0.902132 0.700417,1.893066 0.775692,2.940457l-2.932223,0zm1.477874,-4.116051l-2.287087,0c-0.518108,-1.340848 -1.197942,-2.359423 -1.832493,-3.09042c1.684294,0.568684 3.122177,1.662534 4.11958,3.09042zm-9.375352,-3.09042c-0.633962,0.731586 -1.314384,1.75016 -1.831905,3.09042l-2.287087,0c0.997991,-1.427886 2.435874,-2.521736 4.118992,-3.09042zm-4.117227,12.499294l2.285911,0c0.516932,1.338496 1.196178,2.356482 1.83014,3.08748c-1.681941,-0.568096 -3.118648,-1.66077 -4.116051,-3.08748zm9.374176,3.08748c0.633962,-0.730998 1.313208,-1.748984 1.830728,-3.08748l2.285911,0c-0.997403,1.42671 -2.43411,2.519383 -4.116639,3.08748z"/>
 </g>
</svg>